ISO-10303-21;
HEADER;
/* Generated by software containing ST-Developer
 * from STEP Tools, Inc. (www.steptools.com) 
 */

FILE_DESCRIPTION(
/* description */ (''),
/* implementation_level */ '2;1');

FILE_NAME(
/* name */ 'Bottom part.step',
/* time_stamp */ '2026-07-26T00:43:08+03:00',
/* author */ (''),
/* organization */ (''),
/* preprocessor_version */ 'ST-DEVELOPER v20.1',
/* originating_system */ 'Autodesk Translation Framework v15.8.0.0',
/* authorisation */ '');

FILE_SCHEMA (('AUTOMOTIVE_DESIGN { 1 0 10303 214 3 1 1 }'));
ENDSEC;

DATA;
#10=MECHANICAL_DESIGN_GEOMETRIC_PRESENTATION_REPRESENTATION('',(#13),#1165);
#11=SHAPE_REPRESENTATION_RELATIONSHIP('SRR','None',#1172,#12);
#12=ADVANCED_BREP_SHAPE_REPRESENTATION('',(#14),#1164);
#13=STYLED_ITEM('',(#1181),#14);
#14=MANIFOLD_SOLID_BREP('Body1',#705);
#15=CYLINDRICAL_SURFACE('',#750,3.50000000000001);
#16=CYLINDRICAL_SURFACE('',#751,1.49999999999999);
#17=CYLINDRICAL_SURFACE('',#755,3.5);
#18=CYLINDRICAL_SURFACE('',#756,1.5);
#19=CYLINDRICAL_SURFACE('',#760,3.50000000000001);
#20=CYLINDRICAL_SURFACE('',#761,1.50000000000002);
#21=CYLINDRICAL_SURFACE('',#765,3.5);
#22=CYLINDRICAL_SURFACE('',#766,1.5);
#23=CIRCLE('',#727,3.50000000000001);
#24=CIRCLE('',#728,3.5);
#25=CIRCLE('',#729,3.50000000000001);
#26=CIRCLE('',#730,3.5);
#27=CIRCLE('',#740,1.5);
#28=CIRCLE('',#742,1.50000000000002);
#29=CIRCLE('',#744,1.5);
#30=CIRCLE('',#746,1.49999999999999);
#31=CIRCLE('',#748,3.50000000000001);
#32=CIRCLE('',#749,1.49999999999999);
#33=CIRCLE('',#753,3.5);
#34=CIRCLE('',#754,1.5);
#35=CIRCLE('',#758,3.50000000000001);
#36=CIRCLE('',#759,1.50000000000002);
#37=CIRCLE('',#763,3.5);
#38=CIRCLE('',#764,1.5);
#39=FACE_BOUND('',#92,.T.);
#40=FACE_BOUND('',#94,.T.);
#41=FACE_BOUND('',#99,.T.);
#42=FACE_BOUND('',#102,.T.);
#43=FACE_BOUND('',#103,.T.);
#44=FACE_BOUND('',#104,.T.);
#45=FACE_BOUND('',#105,.T.);
#46=FACE_BOUND('',#119,.T.);
#47=FACE_BOUND('',#123,.T.);
#48=FACE_BOUND('',#127,.T.);
#49=FACE_BOUND('',#131,.T.);
#50=FACE_OUTER_BOUND('',#91,.T.);
#51=FACE_OUTER_BOUND('',#93,.T.);
#52=FACE_OUTER_BOUND('',#95,.T.);
#53=FACE_OUTER_BOUND('',#96,.T.);
#54=FACE_OUTER_BOUND('',#97,.T.);
#55=FACE_OUTER_BOUND('',#98,.T.);
#56=FACE_OUTER_BOUND('',#100,.T.);
#57=FACE_OUTER_BOUND('',#101,.T.);
#58=FACE_OUTER_BOUND('',#106,.T.);
#59=FACE_OUTER_BOUND('',#107,.T.);
#60=FACE_OUTER_BOUND('',#108,.T.);
#61=FACE_OUTER_BOUND('',#109,.T.);
#62=FACE_OUTER_BOUND('',#110,.T.);
#63=FACE_OUTER_BOUND('',#111,.T.);
#64=FACE_OUTER_BOUND('',#112,.T.);
#65=FACE_OUTER_BOUND('',#113,.T.);
#66=FACE_OUTER_BOUND('',#114,.T.);
#67=FACE_OUTER_BOUND('',#115,.T.);
#68=FACE_OUTER_BOUND('',#116,.T.);
#69=FACE_OUTER_BOUND('',#117,.T.);
#70=FACE_OUTER_BOUND('',#118,.T.);
#71=FACE_OUTER_BOUND('',#120,.T.);
#72=FACE_OUTER_BOUND('',#121,.T.);
#73=FACE_OUTER_BOUND('',#122,.T.);
#74=FACE_OUTER_BOUND('',#124,.T.);
#75=FACE_OUTER_BOUND('',#125,.T.);
#76=FACE_OUTER_BOUND('',#126,.T.);
#77=FACE_OUTER_BOUND('',#128,.T.);
#78=FACE_OUTER_BOUND('',#129,.T.);
#79=FACE_OUTER_BOUND('',#130,.T.);
#80=FACE_OUTER_BOUND('',#132,.T.);
#81=FACE_OUTER_BOUND('',#133,.T.);
#82=FACE_OUTER_BOUND('',#134,.T.);
#83=FACE_OUTER_BOUND('',#135,.T.);
#84=FACE_OUTER_BOUND('',#136,.T.);
#85=FACE_OUTER_BOUND('',#137,.T.);
#86=FACE_OUTER_BOUND('',#138,.T.);
#87=FACE_OUTER_BOUND('',#139,.T.);
#88=FACE_OUTER_BOUND('',#140,.T.);
#89=FACE_OUTER_BOUND('',#141,.T.);
#90=FACE_OUTER_BOUND('',#142,.T.);
#91=EDGE_LOOP('',(#447,#448,#449,#450,#451,#452,#453,#454));
#92=EDGE_LOOP('',(#455,#456,#457,#458));
#93=EDGE_LOOP('',(#459,#460,#461,#462));
#94=EDGE_LOOP('',(#463,#464,#465,#466));
#95=EDGE_LOOP('',(#467,#468,#469,#470));
#96=EDGE_LOOP('',(#471,#472,#473,#474,#475,#476,#477,#478,#479,#480));
#97=EDGE_LOOP('',(#481,#482,#483,#484,#485,#486));
#98=EDGE_LOOP('',(#487,#488,#489,#490));
#99=EDGE_LOOP('',(#491,#492,#493,#494));
#100=EDGE_LOOP('',(#495,#496,#497,#498,#499,#500));
#101=EDGE_LOOP('',(#501,#502,#503,#504));
#102=EDGE_LOOP('',(#505));
#103=EDGE_LOOP('',(#506));
#104=EDGE_LOOP('',(#507));
#105=EDGE_LOOP('',(#508));
#106=EDGE_LOOP('',(#509,#510,#511,#512));
#107=EDGE_LOOP('',(#513,#514,#515,#516));
#108=EDGE_LOOP('',(#517,#518,#519,#520));
#109=EDGE_LOOP('',(#521,#522,#523,#524));
#110=EDGE_LOOP('',(#525,#526,#527,#528));
#111=EDGE_LOOP('',(#529,#530,#531,#532));
#112=EDGE_LOOP('',(#533,#534,#535,#536));
#113=EDGE_LOOP('',(#537,#538,#539,#540));
#114=EDGE_LOOP('',(#541));
#115=EDGE_LOOP('',(#542));
#116=EDGE_LOOP('',(#543));
#117=EDGE_LOOP('',(#544));
#118=EDGE_LOOP('',(#545));
#119=EDGE_LOOP('',(#546));
#120=EDGE_LOOP('',(#547,#548,#549,#550));
#121=EDGE_LOOP('',(#551,#552,#553,#554));
#122=EDGE_LOOP('',(#555));
#123=EDGE_LOOP('',(#556));
#124=EDGE_LOOP('',(#557,#558,#559,#560));
#125=EDGE_LOOP('',(#561,#562,#563,#564));
#126=EDGE_LOOP('',(#565));
#127=EDGE_LOOP('',(#566));
#128=EDGE_LOOP('',(#567,#568,#569,#570));
#129=EDGE_LOOP('',(#571,#572,#573,#574));
#130=EDGE_LOOP('',(#575));
#131=EDGE_LOOP('',(#576));
#132=EDGE_LOOP('',(#577,#578,#579,#580));
#133=EDGE_LOOP('',(#581,#582,#583,#584));
#134=EDGE_LOOP('',(#585,#586,#587,#588));
#135=EDGE_LOOP('',(#589,#590,#591,#592));
#136=EDGE_LOOP('',(#593,#594,#595,#596,#597,#598));
#137=EDGE_LOOP('',(#599,#600,#601,#602,#603,#604,#605,#606,#607,#608));
#138=EDGE_LOOP('',(#609,#610,#611,#612));
#139=EDGE_LOOP('',(#613,#614,#615,#616,#617,#618));
#140=EDGE_LOOP('',(#619,#620,#621,#622));
#141=EDGE_LOOP('',(#623,#624,#625,#626));
#142=EDGE_LOOP('',(#627,#628,#629,#630));
#143=LINE('',#972,#219);
#144=LINE('',#974,#220);
#145=LINE('',#976,#221);
#146=LINE('',#978,#222);
#147=LINE('',#980,#223);
#148=LINE('',#982,#224);
#149=LINE('',#984,#225);
#150=LINE('',#985,#226);
#151=LINE('',#988,#227);
#152=LINE('',#990,#228);
#153=LINE('',#992,#229);
#154=LINE('',#993,#230);
#155=LINE('',#996,#231);
#156=LINE('',#998,#232);
#157=LINE('',#999,#233);
#158=LINE('',#1002,#234);
#159=LINE('',#1004,#235);
#160=LINE('',#1006,#236);
#161=LINE('',#1007,#237);
#162=LINE('',#1010,#238);
#163=LINE('',#1011,#239);
#164=LINE('',#1014,#240);
#165=LINE('',#1016,#241);
#166=LINE('',#1018,#242);
#167=LINE('',#1020,#243);
#168=LINE('',#1022,#244);
#169=LINE('',#1024,#245);
#170=LINE('',#1026,#246);
#171=LINE('',#1028,#247);
#172=LINE('',#1029,#248);
#173=LINE('',#1032,#249);
#174=LINE('',#1033,#250);
#175=LINE('',#1034,#251);
#176=LINE('',#1037,#252);
#177=LINE('',#1038,#253);
#178=LINE('',#1041,#254);
#179=LINE('',#1043,#255);
#180=LINE('',#1045,#256);
#181=LINE('',#1046,#257);
#182=LINE('',#1049,#258);
#183=LINE('',#1051,#259);
#184=LINE('',#1053,#260);
#185=LINE('',#1054,#261);
#186=LINE('',#1057,#262);
#187=LINE('',#1058,#263);
#188=LINE('',#1068,#264);
#189=LINE('',#1069,#265);
#190=LINE('',#1071,#266);
#191=LINE('',#1072,#267);
#192=LINE('',#1075,#268);
#193=LINE('',#1076,#269);
#194=LINE('',#1079,#270);
#195=LINE('',#1080,#271);
#196=LINE('',#1083,#272);
#197=LINE('',#1084,#273);
#198=LINE('',#1086,#274);
#199=LINE('',#1106,#275);
#200=LINE('',#1108,#276);
#201=LINE('',#1115,#277);
#202=LINE('',#1117,#278);
#203=LINE('',#1124,#279);
#204=LINE('',#1126,#280);
#205=LINE('',#1133,#281);
#206=LINE('',#1135,#282);
#207=LINE('',#1137,#283);
#208=LINE('',#1141,#284);
#209=LINE('',#1142,#285);
#210=LINE('',#1145,#286);
#211=LINE('',#1147,#287);
#212=LINE('',#1148,#288);
#213=LINE('',#1150,#289);
#214=LINE('',#1153,#290);
#215=LINE('',#1155,#291);
#216=LINE('',#1156,#292);
#217=LINE('',#1158,#293);
#218=LINE('',#1160,#294);
#219=VECTOR('',#780,10.);
#220=VECTOR('',#781,10.);
#221=VECTOR('',#782,10.);
#222=VECTOR('',#783,10.);
#223=VECTOR('',#784,10.);
#224=VECTOR('',#785,10.);
#225=VECTOR('',#786,10.);
#226=VECTOR('',#787,10.);
#227=VECTOR('',#788,10.);
#228=VECTOR('',#789,10.);
#229=VECTOR('',#790,10.);
#230=VECTOR('',#791,10.);
#231=VECTOR('',#794,10.);
#232=VECTOR('',#795,10.);
#233=VECTOR('',#796,10.);
#234=VECTOR('',#797,10.);
#235=VECTOR('',#798,10.);
#236=VECTOR('',#799,10.);
#237=VECTOR('',#800,10.);
#238=VECTOR('',#803,10.);
#239=VECTOR('',#804,10.);
#240=VECTOR('',#807,10.);
#241=VECTOR('',#808,10.);
#242=VECTOR('',#809,10.);
#243=VECTOR('',#810,10.);
#244=VECTOR('',#811,10.);
#245=VECTOR('',#812,10.);
#246=VECTOR('',#813,10.);
#247=VECTOR('',#814,10.);
#248=VECTOR('',#815,10.);
#249=VECTOR('',#818,10.);
#250=VECTOR('',#819,10.);
#251=VECTOR('',#820,10.);
#252=VECTOR('',#823,10.);
#253=VECTOR('',#824,10.);
#254=VECTOR('',#825,10.);
#255=VECTOR('',#826,10.);
#256=VECTOR('',#827,10.);
#257=VECTOR('',#828,10.);
#258=VECTOR('',#831,10.);
#259=VECTOR('',#832,10.);
#260=VECTOR('',#833,10.);
#261=VECTOR('',#834,10.);
#262=VECTOR('',#837,10.);
#263=VECTOR('',#838,10.);
#264=VECTOR('',#849,10.);
#265=VECTOR('',#850,10.);
#266=VECTOR('',#853,10.);
#267=VECTOR('',#854,10.);
#268=VECTOR('',#859,10.);
#269=VECTOR('',#860,10.);
#270=VECTOR('',#863,10.);
#271=VECTOR('',#864,10.);
#272=VECTOR('',#867,10.);
#273=VECTOR('',#868,10.);
#274=VECTOR('',#871,10.);
#275=VECTOR('',#898,3.50000000000001);
#276=VECTOR('',#901,1.49999999999999);
#277=VECTOR('',#910,3.5);
#278=VECTOR('',#913,1.5);
#279=VECTOR('',#922,3.50000000000001);
#280=VECTOR('',#925,1.50000000000002);
#281=VECTOR('',#934,3.5);
#282=VECTOR('',#937,1.5);
#283=VECTOR('',#940,10.);
#284=VECTOR('',#945,10.);
#285=VECTOR('',#946,10.);
#286=VECTOR('',#949,10.);
#287=VECTOR('',#950,10.);
#288=VECTOR('',#951,10.);
#289=VECTOR('',#954,10.);
#290=VECTOR('',#957,10.);
#291=VECTOR('',#958,10.);
#292=VECTOR('',#959,10.);
#293=VECTOR('',#962,10.);
#294=VECTOR('',#965,10.);
#295=VERTEX_POINT('',#970);
#296=VERTEX_POINT('',#971);
#297=VERTEX_POINT('',#973);
#298=VERTEX_POINT('',#975);
#299=VERTEX_POINT('',#977);
#300=VERTEX_POINT('',#979);
#301=VERTEX_POINT('',#981);
#302=VERTEX_POINT('',#983);
#303=VERTEX_POINT('',#986);
#304=VERTEX_POINT('',#987);
#305=VERTEX_POINT('',#989);
#306=VERTEX_POINT('',#991);
#307=VERTEX_POINT('',#995);
#308=VERTEX_POINT('',#997);
#309=VERTEX_POINT('',#1000);
#310=VERTEX_POINT('',#1001);
#311=VERTEX_POINT('',#1003);
#312=VERTEX_POINT('',#1005);
#313=VERTEX_POINT('',#1009);
#314=VERTEX_POINT('',#1013);
#315=VERTEX_POINT('',#1015);
#316=VERTEX_POINT('',#1017);
#317=VERTEX_POINT('',#1019);
#318=VERTEX_POINT('',#1021);
#319=VERTEX_POINT('',#1023);
#320=VERTEX_POINT('',#1025);
#321=VERTEX_POINT('',#1027);
#322=VERTEX_POINT('',#1031);
#323=VERTEX_POINT('',#1036);
#324=VERTEX_POINT('',#1039);
#325=VERTEX_POINT('',#1040);
#326=VERTEX_POINT('',#1042);
#327=VERTEX_POINT('',#1044);
#328=VERTEX_POINT('',#1048);
#329=VERTEX_POINT('',#1050);
#330=VERTEX_POINT('',#1052);
#331=VERTEX_POINT('',#1056);
#332=VERTEX_POINT('',#1059);
#333=VERTEX_POINT('',#1061);
#334=VERTEX_POINT('',#1063);
#335=VERTEX_POINT('',#1065);
#336=VERTEX_POINT('',#1078);
#337=VERTEX_POINT('',#1082);
#338=VERTEX_POINT('',#1089);
#339=VERTEX_POINT('',#1092);
#340=VERTEX_POINT('',#1095);
#341=VERTEX_POINT('',#1098);
#342=VERTEX_POINT('',#1101);
#343=VERTEX_POINT('',#1103);
#344=VERTEX_POINT('',#1110);
#345=VERTEX_POINT('',#1112);
#346=VERTEX_POINT('',#1119);
#347=VERTEX_POINT('',#1121);
#348=VERTEX_POINT('',#1128);
#349=VERTEX_POINT('',#1130);
#350=VERTEX_POINT('',#1140);
#351=VERTEX_POINT('',#1144);
#352=VERTEX_POINT('',#1146);
#353=VERTEX_POINT('',#1152);
#354=VERTEX_POINT('',#1154);
#355=EDGE_CURVE('',#295,#296,#143,.T.);
#356=EDGE_CURVE('',#297,#295,#144,.T.);
#357=EDGE_CURVE('',#298,#297,#145,.T.);
#358=EDGE_CURVE('',#299,#298,#146,.T.);
#359=EDGE_CURVE('',#300,#299,#147,.T.);
#360=EDGE_CURVE('',#301,#300,#148,.T.);
#361=EDGE_CURVE('',#302,#301,#149,.T.);
#362=EDGE_CURVE('',#296,#302,#150,.T.);
#363=EDGE_CURVE('',#303,#304,#151,.T.);
#364=EDGE_CURVE('',#305,#303,#152,.T.);
#365=EDGE_CURVE('',#306,#305,#153,.T.);
#366=EDGE_CURVE('',#304,#306,#154,.T.);
#367=EDGE_CURVE('',#307,#306,#155,.T.);
#368=EDGE_CURVE('',#307,#308,#156,.T.);
#369=EDGE_CURVE('',#304,#308,#157,.T.);
#370=EDGE_CURVE('',#309,#310,#158,.T.);
#371=EDGE_CURVE('',#309,#311,#159,.T.);
#372=EDGE_CURVE('',#311,#312,#160,.T.);
#373=EDGE_CURVE('',#312,#310,#161,.T.);
#374=EDGE_CURVE('',#313,#305,#162,.T.);
#375=EDGE_CURVE('',#313,#307,#163,.T.);
#376=EDGE_CURVE('',#314,#300,#164,.T.);
#377=EDGE_CURVE('',#314,#315,#165,.T.);
#378=EDGE_CURVE('',#315,#316,#166,.T.);
#379=EDGE_CURVE('',#316,#317,#167,.T.);
#380=EDGE_CURVE('',#317,#318,#168,.T.);
#381=EDGE_CURVE('',#319,#318,#169,.T.);
#382=EDGE_CURVE('',#319,#320,#170,.T.);
#383=EDGE_CURVE('',#321,#320,#171,.T.);
#384=EDGE_CURVE('',#321,#301,#172,.T.);
#385=EDGE_CURVE('',#322,#299,#173,.T.);
#386=EDGE_CURVE('',#318,#322,#174,.T.);
#387=EDGE_CURVE('',#314,#317,#175,.T.);
#388=EDGE_CURVE('',#323,#298,#176,.T.);
#389=EDGE_CURVE('',#322,#323,#177,.T.);
#390=EDGE_CURVE('',#324,#325,#178,.T.);
#391=EDGE_CURVE('',#325,#326,#179,.T.);
#392=EDGE_CURVE('',#326,#327,#180,.T.);
#393=EDGE_CURVE('',#327,#324,#181,.T.);
#394=EDGE_CURVE('',#328,#297,#182,.T.);
#395=EDGE_CURVE('',#329,#328,#183,.T.);
#396=EDGE_CURVE('',#330,#329,#184,.T.);
#397=EDGE_CURVE('',#323,#330,#185,.T.);
#398=EDGE_CURVE('',#331,#313,#186,.T.);
#399=EDGE_CURVE('',#308,#331,#187,.T.);
#400=EDGE_CURVE('',#332,#332,#23,.T.);
#401=EDGE_CURVE('',#333,#333,#24,.T.);
#402=EDGE_CURVE('',#334,#334,#25,.T.);
#403=EDGE_CURVE('',#335,#335,#26,.T.);
#404=EDGE_CURVE('',#326,#312,#188,.T.);
#405=EDGE_CURVE('',#325,#310,#189,.T.);
#406=EDGE_CURVE('',#324,#309,#190,.T.);
#407=EDGE_CURVE('',#327,#311,#191,.T.);
#408=EDGE_CURVE('',#329,#317,#192,.T.);
#409=EDGE_CURVE('',#314,#328,#193,.T.);
#410=EDGE_CURVE('',#336,#316,#194,.T.);
#411=EDGE_CURVE('',#329,#336,#195,.T.);
#412=EDGE_CURVE('',#337,#328,#196,.T.);
#413=EDGE_CURVE('',#337,#315,#197,.T.);
#414=EDGE_CURVE('',#336,#337,#198,.T.);
#415=EDGE_CURVE('',#338,#338,#27,.T.);
#416=EDGE_CURVE('',#339,#339,#28,.T.);
#417=EDGE_CURVE('',#340,#340,#29,.T.);
#418=EDGE_CURVE('',#341,#341,#30,.T.);
#419=EDGE_CURVE('',#342,#342,#31,.T.);
#420=EDGE_CURVE('',#343,#343,#32,.T.);
#421=EDGE_CURVE('',#342,#332,#199,.T.);
#422=EDGE_CURVE('',#343,#341,#200,.T.);
#423=EDGE_CURVE('',#344,#344,#33,.T.);
#424=EDGE_CURVE('',#345,#345,#34,.T.);
#425=EDGE_CURVE('',#344,#333,#201,.T.);
#426=EDGE_CURVE('',#345,#340,#202,.T.);
#427=EDGE_CURVE('',#346,#346,#35,.T.);
#428=EDGE_CURVE('',#347,#347,#36,.T.);
#429=EDGE_CURVE('',#346,#334,#203,.T.);
#430=EDGE_CURVE('',#347,#339,#204,.T.);
#431=EDGE_CURVE('',#348,#348,#37,.T.);
#432=EDGE_CURVE('',#349,#349,#38,.T.);
#433=EDGE_CURVE('',#348,#335,#205,.T.);
#434=EDGE_CURVE('',#349,#338,#206,.T.);
#435=EDGE_CURVE('',#331,#303,#207,.T.);
#436=EDGE_CURVE('',#330,#350,#208,.T.);
#437=EDGE_CURVE('',#350,#319,#209,.T.);
#438=EDGE_CURVE('',#295,#351,#210,.T.);
#439=EDGE_CURVE('',#352,#351,#211,.T.);
#440=EDGE_CURVE('',#352,#350,#212,.T.);
#441=EDGE_CURVE('',#320,#352,#213,.T.);
#442=EDGE_CURVE('',#353,#321,#214,.T.);
#443=EDGE_CURVE('',#351,#354,#215,.T.);
#444=EDGE_CURVE('',#354,#353,#216,.T.);
#445=EDGE_CURVE('',#302,#353,#217,.T.);
#446=EDGE_CURVE('',#354,#296,#218,.T.);
#447=ORIENTED_EDGE('',*,*,#355,.F.);
#448=ORIENTED_EDGE('',*,*,#356,.F.);
#449=ORIENTED_EDGE('',*,*,#357,.F.);
#450=ORIENTED_EDGE('',*,*,#358,.F.);
#451=ORIENTED_EDGE('',*,*,#359,.F.);
#452=ORIENTED_EDGE('',*,*,#360,.F.);
#453=ORIENTED_EDGE('',*,*,#361,.F.);
#454=ORIENTED_EDGE('',*,*,#362,.F.);
#455=ORIENTED_EDGE('',*,*,#363,.F.);
#456=ORIENTED_EDGE('',*,*,#364,.F.);
#457=ORIENTED_EDGE('',*,*,#365,.F.);
#458=ORIENTED_EDGE('',*,*,#366,.F.);
#459=ORIENTED_EDGE('',*,*,#366,.T.);
#460=ORIENTED_EDGE('',*,*,#367,.F.);
#461=ORIENTED_EDGE('',*,*,#368,.T.);
#462=ORIENTED_EDGE('',*,*,#369,.F.);
#463=ORIENTED_EDGE('',*,*,#370,.F.);
#464=ORIENTED_EDGE('',*,*,#371,.T.);
#465=ORIENTED_EDGE('',*,*,#372,.T.);
#466=ORIENTED_EDGE('',*,*,#373,.T.);
#467=ORIENTED_EDGE('',*,*,#365,.T.);
#468=ORIENTED_EDGE('',*,*,#374,.F.);
#469=ORIENTED_EDGE('',*,*,#375,.T.);
#470=ORIENTED_EDGE('',*,*,#367,.T.);
#471=ORIENTED_EDGE('',*,*,#360,.T.);
#472=ORIENTED_EDGE('',*,*,#376,.F.);
#473=ORIENTED_EDGE('',*,*,#377,.T.);
#474=ORIENTED_EDGE('',*,*,#378,.T.);
#475=ORIENTED_EDGE('',*,*,#379,.T.);
#476=ORIENTED_EDGE('',*,*,#380,.T.);
#477=ORIENTED_EDGE('',*,*,#381,.F.);
#478=ORIENTED_EDGE('',*,*,#382,.T.);
#479=ORIENTED_EDGE('',*,*,#383,.F.);
#480=ORIENTED_EDGE('',*,*,#384,.T.);
#481=ORIENTED_EDGE('',*,*,#359,.T.);
#482=ORIENTED_EDGE('',*,*,#385,.F.);
#483=ORIENTED_EDGE('',*,*,#386,.F.);
#484=ORIENTED_EDGE('',*,*,#380,.F.);
#485=ORIENTED_EDGE('',*,*,#387,.F.);
#486=ORIENTED_EDGE('',*,*,#376,.T.);
#487=ORIENTED_EDGE('',*,*,#358,.T.);
#488=ORIENTED_EDGE('',*,*,#388,.F.);
#489=ORIENTED_EDGE('',*,*,#389,.F.);
#490=ORIENTED_EDGE('',*,*,#385,.T.);
#491=ORIENTED_EDGE('',*,*,#390,.T.);
#492=ORIENTED_EDGE('',*,*,#391,.T.);
#493=ORIENTED_EDGE('',*,*,#392,.T.);
#494=ORIENTED_EDGE('',*,*,#393,.T.);
#495=ORIENTED_EDGE('',*,*,#357,.T.);
#496=ORIENTED_EDGE('',*,*,#394,.F.);
#497=ORIENTED_EDGE('',*,*,#395,.F.);
#498=ORIENTED_EDGE('',*,*,#396,.F.);
#499=ORIENTED_EDGE('',*,*,#397,.F.);
#500=ORIENTED_EDGE('',*,*,#388,.T.);
#501=ORIENTED_EDGE('',*,*,#368,.F.);
#502=ORIENTED_EDGE('',*,*,#375,.F.);
#503=ORIENTED_EDGE('',*,*,#398,.F.);
#504=ORIENTED_EDGE('',*,*,#399,.F.);
#505=ORIENTED_EDGE('',*,*,#400,.F.);
#506=ORIENTED_EDGE('',*,*,#401,.F.);
#507=ORIENTED_EDGE('',*,*,#402,.F.);
#508=ORIENTED_EDGE('',*,*,#403,.F.);
#509=ORIENTED_EDGE('',*,*,#373,.F.);
#510=ORIENTED_EDGE('',*,*,#404,.F.);
#511=ORIENTED_EDGE('',*,*,#391,.F.);
#512=ORIENTED_EDGE('',*,*,#405,.T.);
#513=ORIENTED_EDGE('',*,*,#371,.F.);
#514=ORIENTED_EDGE('',*,*,#406,.F.);
#515=ORIENTED_EDGE('',*,*,#393,.F.);
#516=ORIENTED_EDGE('',*,*,#407,.T.);
#517=ORIENTED_EDGE('',*,*,#372,.F.);
#518=ORIENTED_EDGE('',*,*,#407,.F.);
#519=ORIENTED_EDGE('',*,*,#392,.F.);
#520=ORIENTED_EDGE('',*,*,#404,.T.);
#521=ORIENTED_EDGE('',*,*,#387,.T.);
#522=ORIENTED_EDGE('',*,*,#408,.F.);
#523=ORIENTED_EDGE('',*,*,#395,.T.);
#524=ORIENTED_EDGE('',*,*,#409,.F.);
#525=ORIENTED_EDGE('',*,*,#379,.F.);
#526=ORIENTED_EDGE('',*,*,#410,.F.);
#527=ORIENTED_EDGE('',*,*,#411,.F.);
#528=ORIENTED_EDGE('',*,*,#408,.T.);
#529=ORIENTED_EDGE('',*,*,#377,.F.);
#530=ORIENTED_EDGE('',*,*,#409,.T.);
#531=ORIENTED_EDGE('',*,*,#412,.F.);
#532=ORIENTED_EDGE('',*,*,#413,.T.);
#533=ORIENTED_EDGE('',*,*,#378,.F.);
#534=ORIENTED_EDGE('',*,*,#413,.F.);
#535=ORIENTED_EDGE('',*,*,#414,.F.);
#536=ORIENTED_EDGE('',*,*,#410,.T.);
#537=ORIENTED_EDGE('',*,*,#370,.T.);
#538=ORIENTED_EDGE('',*,*,#405,.F.);
#539=ORIENTED_EDGE('',*,*,#390,.F.);
#540=ORIENTED_EDGE('',*,*,#406,.T.);
#541=ORIENTED_EDGE('',*,*,#415,.T.);
#542=ORIENTED_EDGE('',*,*,#416,.T.);
#543=ORIENTED_EDGE('',*,*,#417,.T.);
#544=ORIENTED_EDGE('',*,*,#418,.T.);
#545=ORIENTED_EDGE('',*,*,#419,.T.);
#546=ORIENTED_EDGE('',*,*,#420,.T.);
#547=ORIENTED_EDGE('',*,*,#419,.F.);
#548=ORIENTED_EDGE('',*,*,#421,.T.);
#549=ORIENTED_EDGE('',*,*,#400,.T.);
#550=ORIENTED_EDGE('',*,*,#421,.F.);
#551=ORIENTED_EDGE('',*,*,#420,.F.);
#552=ORIENTED_EDGE('',*,*,#422,.T.);
#553=ORIENTED_EDGE('',*,*,#418,.F.);
#554=ORIENTED_EDGE('',*,*,#422,.F.);
#555=ORIENTED_EDGE('',*,*,#423,.T.);
#556=ORIENTED_EDGE('',*,*,#424,.T.);
#557=ORIENTED_EDGE('',*,*,#423,.F.);
#558=ORIENTED_EDGE('',*,*,#425,.T.);
#559=ORIENTED_EDGE('',*,*,#401,.T.);
#560=ORIENTED_EDGE('',*,*,#425,.F.);
#561=ORIENTED_EDGE('',*,*,#424,.F.);
#562=ORIENTED_EDGE('',*,*,#426,.T.);
#563=ORIENTED_EDGE('',*,*,#417,.F.);
#564=ORIENTED_EDGE('',*,*,#426,.F.);
#565=ORIENTED_EDGE('',*,*,#427,.T.);
#566=ORIENTED_EDGE('',*,*,#428,.T.);
#567=ORIENTED_EDGE('',*,*,#427,.F.);
#568=ORIENTED_EDGE('',*,*,#429,.T.);
#569=ORIENTED_EDGE('',*,*,#402,.T.);
#570=ORIENTED_EDGE('',*,*,#429,.F.);
#571=ORIENTED_EDGE('',*,*,#428,.F.);
#572=ORIENTED_EDGE('',*,*,#430,.T.);
#573=ORIENTED_EDGE('',*,*,#416,.F.);
#574=ORIENTED_EDGE('',*,*,#430,.F.);
#575=ORIENTED_EDGE('',*,*,#431,.T.);
#576=ORIENTED_EDGE('',*,*,#432,.T.);
#577=ORIENTED_EDGE('',*,*,#431,.F.);
#578=ORIENTED_EDGE('',*,*,#433,.T.);
#579=ORIENTED_EDGE('',*,*,#403,.T.);
#580=ORIENTED_EDGE('',*,*,#433,.F.);
#581=ORIENTED_EDGE('',*,*,#432,.F.);
#582=ORIENTED_EDGE('',*,*,#434,.T.);
#583=ORIENTED_EDGE('',*,*,#415,.F.);
#584=ORIENTED_EDGE('',*,*,#434,.F.);
#585=ORIENTED_EDGE('',*,*,#363,.T.);
#586=ORIENTED_EDGE('',*,*,#369,.T.);
#587=ORIENTED_EDGE('',*,*,#399,.T.);
#588=ORIENTED_EDGE('',*,*,#435,.T.);
#589=ORIENTED_EDGE('',*,*,#364,.T.);
#590=ORIENTED_EDGE('',*,*,#435,.F.);
#591=ORIENTED_EDGE('',*,*,#398,.T.);
#592=ORIENTED_EDGE('',*,*,#374,.T.);
#593=ORIENTED_EDGE('',*,*,#397,.T.);
#594=ORIENTED_EDGE('',*,*,#436,.T.);
#595=ORIENTED_EDGE('',*,*,#437,.T.);
#596=ORIENTED_EDGE('',*,*,#381,.T.);
#597=ORIENTED_EDGE('',*,*,#386,.T.);
#598=ORIENTED_EDGE('',*,*,#389,.T.);
#599=ORIENTED_EDGE('',*,*,#356,.T.);
#600=ORIENTED_EDGE('',*,*,#438,.T.);
#601=ORIENTED_EDGE('',*,*,#439,.F.);
#602=ORIENTED_EDGE('',*,*,#440,.T.);
#603=ORIENTED_EDGE('',*,*,#436,.F.);
#604=ORIENTED_EDGE('',*,*,#396,.T.);
#605=ORIENTED_EDGE('',*,*,#411,.T.);
#606=ORIENTED_EDGE('',*,*,#414,.T.);
#607=ORIENTED_EDGE('',*,*,#412,.T.);
#608=ORIENTED_EDGE('',*,*,#394,.T.);
#609=ORIENTED_EDGE('',*,*,#440,.F.);
#610=ORIENTED_EDGE('',*,*,#441,.F.);
#611=ORIENTED_EDGE('',*,*,#382,.F.);
#612=ORIENTED_EDGE('',*,*,#437,.F.);
#613=ORIENTED_EDGE('',*,*,#442,.T.);
#614=ORIENTED_EDGE('',*,*,#383,.T.);
#615=ORIENTED_EDGE('',*,*,#441,.T.);
#616=ORIENTED_EDGE('',*,*,#439,.T.);
#617=ORIENTED_EDGE('',*,*,#443,.T.);
#618=ORIENTED_EDGE('',*,*,#444,.T.);
#619=ORIENTED_EDGE('',*,*,#361,.T.);
#620=ORIENTED_EDGE('',*,*,#384,.F.);
#621=ORIENTED_EDGE('',*,*,#442,.F.);
#622=ORIENTED_EDGE('',*,*,#445,.F.);
#623=ORIENTED_EDGE('',*,*,#362,.T.);
#624=ORIENTED_EDGE('',*,*,#445,.T.);
#625=ORIENTED_EDGE('',*,*,#444,.F.);
#626=ORIENTED_EDGE('',*,*,#446,.T.);
#627=ORIENTED_EDGE('',*,*,#355,.T.);
#628=ORIENTED_EDGE('',*,*,#446,.F.);
#629=ORIENTED_EDGE('',*,*,#443,.F.);
#630=ORIENTED_EDGE('',*,*,#438,.F.);
#631=PLANE('',#719);
#632=PLANE('',#720);
#633=PLANE('',#721);
#634=PLANE('',#722);
#635=PLANE('',#723);
#636=PLANE('',#724);
#637=PLANE('',#725);
#638=PLANE('',#726);
#639=PLANE('',#731);
#640=PLANE('',#732);
#641=PLANE('',#733);
#642=PLANE('',#734);
#643=PLANE('',#735);
#644=PLANE('',#736);
#645=PLANE('',#737);
#646=PLANE('',#738);
#647=PLANE('',#739);
#648=PLANE('',#741);
#649=PLANE('',#743);
#650=PLANE('',#745);
#651=PLANE('',#747);
#652=PLANE('',#752);
#653=PLANE('',#757);
#654=PLANE('',#762);
#655=PLANE('',#767);
#656=PLANE('',#768);
#657=PLANE('',#769);
#658=PLANE('',#770);
#659=PLANE('',#771);
#660=PLANE('',#772);
#661=PLANE('',#773);
#662=PLANE('',#774);
#663=PLANE('',#775);
#664=ADVANCED_FACE('',(#50,#39),#631,.F.);
#665=ADVANCED_FACE('',(#51,#40),#632,.T.);
#666=ADVANCED_FACE('',(#52),#633,.T.);
#667=ADVANCED_FACE('',(#53),#634,.T.);
#668=ADVANCED_FACE('',(#54),#635,.F.);
#669=ADVANCED_FACE('',(#55,#41),#636,.T.);
#670=ADVANCED_FACE('',(#56),#637,.F.);
#671=ADVANCED_FACE('',(#57,#42,#43,#44,#45),#638,.T.);
#672=ADVANCED_FACE('',(#58),#639,.F.);
#673=ADVANCED_FACE('',(#59),#640,.F.);
#674=ADVANCED_FACE('',(#60),#641,.F.);
#675=ADVANCED_FACE('',(#61),#642,.F.);
#676=ADVANCED_FACE('',(#62),#643,.F.);
#677=ADVANCED_FACE('',(#63),#644,.F.);
#678=ADVANCED_FACE('',(#64),#645,.F.);
#679=ADVANCED_FACE('',(#65),#646,.T.);
#680=ADVANCED_FACE('',(#66),#647,.T.);
#681=ADVANCED_FACE('',(#67),#648,.T.);
#682=ADVANCED_FACE('',(#68),#649,.T.);
#683=ADVANCED_FACE('',(#69),#650,.T.);
#684=ADVANCED_FACE('',(#70,#46),#651,.T.);
#685=ADVANCED_FACE('',(#71),#15,.T.);
#686=ADVANCED_FACE('',(#72),#16,.F.);
#687=ADVANCED_FACE('',(#73,#47),#652,.T.);
#688=ADVANCED_FACE('',(#74),#17,.T.);
#689=ADVANCED_FACE('',(#75),#18,.F.);
#690=ADVANCED_FACE('',(#76,#48),#653,.T.);
#691=ADVANCED_FACE('',(#77),#19,.T.);
#692=ADVANCED_FACE('',(#78),#20,.F.);
#693=ADVANCED_FACE('',(#79,#49),#654,.T.);
#694=ADVANCED_FACE('',(#80),#21,.T.);
#695=ADVANCED_FACE('',(#81),#22,.F.);
#696=ADVANCED_FACE('',(#82),#655,.T.);
#697=ADVANCED_FACE('',(#83),#656,.T.);
#698=ADVANCED_FACE('',(#84),#657,.T.);
#699=ADVANCED_FACE('',(#85),#658,.T.);
#700=ADVANCED_FACE('',(#86),#659,.F.);
#701=ADVANCED_FACE('',(#87),#660,.T.);
#702=ADVANCED_FACE('',(#88),#661,.F.);
#703=ADVANCED_FACE('',(#89),#662,.T.);
#704=ADVANCED_FACE('',(#90),#663,.F.);
#705=CLOSED_SHELL('',(#664,#665,#666,#667,#668,#669,#670,#671,#672,#673,
#674,#675,#676,#677,#678,#679,#680,#681,#682,#683,#684,#685,#686,#687,#688,
#689,#690,#691,#692,#693,#694,#695,#696,#697,#698,#699,#700,#701,#702,#703,
#704));
#706=DERIVED_UNIT_ELEMENT(#708,1.);
#707=DERIVED_UNIT_ELEMENT(#1167,-3.);
#708=(
MASS_UNIT()
NAMED_UNIT(*)
SI_UNIT(.KILO.,.GRAM.)
);
#709=DERIVED_UNIT((#706,#707));
#710=MEASURE_REPRESENTATION_ITEM('density measure',
POSITIVE_RATIO_MEASURE(7850.),#709);
#711=PROPERTY_DEFINITION_REPRESENTATION(#716,#713);
#712=PROPERTY_DEFINITION_REPRESENTATION(#717,#714);
#713=REPRESENTATION('material name',(#715),#1164);
#714=REPRESENTATION('density',(#710),#1164);
#715=DESCRIPTIVE_REPRESENTATION_ITEM('Steel','Steel');
#716=PROPERTY_DEFINITION('material property','material name',#1174);
#717=PROPERTY_DEFINITION('material property','density of part',#1174);
#718=AXIS2_PLACEMENT_3D('',#968,#776,#777);
#719=AXIS2_PLACEMENT_3D('',#969,#778,#779);
#720=AXIS2_PLACEMENT_3D('',#994,#792,#793);
#721=AXIS2_PLACEMENT_3D('',#1008,#801,#802);
#722=AXIS2_PLACEMENT_3D('',#1012,#805,#806);
#723=AXIS2_PLACEMENT_3D('',#1030,#816,#817);
#724=AXIS2_PLACEMENT_3D('',#1035,#821,#822);
#725=AXIS2_PLACEMENT_3D('',#1047,#829,#830);
#726=AXIS2_PLACEMENT_3D('',#1055,#835,#836);
#727=AXIS2_PLACEMENT_3D('',#1060,#839,#840);
#728=AXIS2_PLACEMENT_3D('',#1062,#841,#842);
#729=AXIS2_PLACEMENT_3D('',#1064,#843,#844);
#730=AXIS2_PLACEMENT_3D('',#1066,#845,#846);
#731=AXIS2_PLACEMENT_3D('',#1067,#847,#848);
#732=AXIS2_PLACEMENT_3D('',#1070,#851,#852);
#733=AXIS2_PLACEMENT_3D('',#1073,#855,#856);
#734=AXIS2_PLACEMENT_3D('',#1074,#857,#858);
#735=AXIS2_PLACEMENT_3D('',#1077,#861,#862);
#736=AXIS2_PLACEMENT_3D('',#1081,#865,#866);
#737=AXIS2_PLACEMENT_3D('',#1085,#869,#870);
#738=AXIS2_PLACEMENT_3D('',#1087,#872,#873);
#739=AXIS2_PLACEMENT_3D('',#1088,#874,#875);
#740=AXIS2_PLACEMENT_3D('',#1090,#876,#877);
#741=AXIS2_PLACEMENT_3D('',#1091,#878,#879);
#742=AXIS2_PLACEMENT_3D('',#1093,#880,#881);
#743=AXIS2_PLACEMENT_3D('',#1094,#882,#883);
#744=AXIS2_PLACEMENT_3D('',#1096,#884,#885);
#745=AXIS2_PLACEMENT_3D('',#1097,#886,#887);
#746=AXIS2_PLACEMENT_3D('',#1099,#888,#889);
#747=AXIS2_PLACEMENT_3D('',#1100,#890,#891);
#748=AXIS2_PLACEMENT_3D('',#1102,#892,#893);
#749=AXIS2_PLACEMENT_3D('',#1104,#894,#895);
#750=AXIS2_PLACEMENT_3D('',#1105,#896,#897);
#751=AXIS2_PLACEMENT_3D('',#1107,#899,#900);
#752=AXIS2_PLACEMENT_3D('',#1109,#902,#903);
#753=AXIS2_PLACEMENT_3D('',#1111,#904,#905);
#754=AXIS2_PLACEMENT_3D('',#1113,#906,#907);
#755=AXIS2_PLACEMENT_3D('',#1114,#908,#909);
#756=AXIS2_PLACEMENT_3D('',#1116,#911,#912);
#757=AXIS2_PLACEMENT_3D('',#1118,#914,#915);
#758=AXIS2_PLACEMENT_3D('',#1120,#916,#917);
#759=AXIS2_PLACEMENT_3D('',#1122,#918,#919);
#760=AXIS2_PLACEMENT_3D('',#1123,#920,#921);
#761=AXIS2_PLACEMENT_3D('',#1125,#923,#924);
#762=AXIS2_PLACEMENT_3D('',#1127,#926,#927);
#763=AXIS2_PLACEMENT_3D('',#1129,#928,#929);
#764=AXIS2_PLACEMENT_3D('',#1131,#930,#931);
#765=AXIS2_PLACEMENT_3D('',#1132,#932,#933);
#766=AXIS2_PLACEMENT_3D('',#1134,#935,#936);
#767=AXIS2_PLACEMENT_3D('',#1136,#938,#939);
#768=AXIS2_PLACEMENT_3D('',#1138,#941,#942);
#769=AXIS2_PLACEMENT_3D('',#1139,#943,#944);
#770=AXIS2_PLACEMENT_3D('',#1143,#947,#948);
#771=AXIS2_PLACEMENT_3D('',#1149,#952,#953);
#772=AXIS2_PLACEMENT_3D('',#1151,#955,#956);
#773=AXIS2_PLACEMENT_3D('',#1157,#960,#961);
#774=AXIS2_PLACEMENT_3D('',#1159,#963,#964);
#775=AXIS2_PLACEMENT_3D('',#1161,#966,#967);
#776=DIRECTION('axis',(0.,0.,1.));
#777=DIRECTION('refdir',(1.,0.,0.));
#778=DIRECTION('center_axis',(0.,0.,-1.));
#779=DIRECTION('ref_axis',(-1.,0.,0.));
#780=DIRECTION('',(-0.707106781186545,-0.70710678118655,0.));
#781=DIRECTION('',(0.,-1.,0.));
#782=DIRECTION('',(0.707106781186545,-0.70710678118655,0.));
#783=DIRECTION('',(1.,0.,0.));
#784=DIRECTION('',(0.707106781186545,0.70710678118655,0.));
#785=DIRECTION('',(0.,1.,0.));
#786=DIRECTION('',(-0.707106781186545,0.70710678118655,0.));
#787=DIRECTION('',(-1.,0.,0.));
#788=DIRECTION('',(0.,1.,0.));
#789=DIRECTION('',(1.,0.,0.));
#790=DIRECTION('',(0.,-1.,0.));
#791=DIRECTION('',(-1.,0.,0.));
#792=DIRECTION('center_axis',(0.,-1.,0.));
#793=DIRECTION('ref_axis',(1.,0.,0.));
#794=DIRECTION('',(0.,0.,1.));
#795=DIRECTION('',(1.,0.,0.));
#796=DIRECTION('',(0.,0.,-1.));
#797=DIRECTION('',(1.,0.,0.));
#798=DIRECTION('',(0.,0.,1.));
#799=DIRECTION('',(1.,0.,0.));
#800=DIRECTION('',(0.,0.,-1.));
#801=DIRECTION('center_axis',(1.,0.,0.));
#802=DIRECTION('ref_axis',(0.,1.,0.));
#803=DIRECTION('',(0.,0.,1.));
#804=DIRECTION('',(0.,1.,0.));
#805=DIRECTION('center_axis',(-1.,0.,0.));
#806=DIRECTION('ref_axis',(0.,0.,1.));
#807=DIRECTION('',(0.,0.,1.));
#808=DIRECTION('',(0.,-1.,0.));
#809=DIRECTION('',(0.,0.780868809443033,-0.624695047554421));
#810=DIRECTION('',(0.,1.,0.));
#811=DIRECTION('',(0.,0.,-1.));
#812=DIRECTION('',(0.,1.,0.));
#813=DIRECTION('',(0.,-0.78086880944303,0.624695047554424));
#814=DIRECTION('',(0.,1.,0.));
#815=DIRECTION('',(0.,0.,1.));
#816=DIRECTION('center_axis',(0.70710678118655,-0.707106781186545,0.));
#817=DIRECTION('ref_axis',(-0.707106781186545,-0.70710678118655,0.));
#818=DIRECTION('',(0.,0.,1.));
#819=DIRECTION('',(0.707106781186545,0.70710678118655,0.));
#820=DIRECTION('',(0.,0.,-1.));
#821=DIRECTION('center_axis',(0.,1.,0.));
#822=DIRECTION('ref_axis',(0.,0.,1.));
#823=DIRECTION('',(0.,0.,1.));
#824=DIRECTION('',(1.,0.,0.));
#825=DIRECTION('',(1.,0.,0.));
#826=DIRECTION('',(0.,0.,1.));
#827=DIRECTION('',(-1.,0.,0.));
#828=DIRECTION('',(0.,0.,-1.));
#829=DIRECTION('center_axis',(-0.70710678118655,-0.707106781186545,0.));
#830=DIRECTION('ref_axis',(-0.707106781186545,0.70710678118655,0.));
#831=DIRECTION('',(0.,0.,1.));
#832=DIRECTION('',(0.,0.,1.));
#833=DIRECTION('',(0.,0.,1.));
#834=DIRECTION('',(0.707106781186545,-0.70710678118655,0.));
#835=DIRECTION('center_axis',(0.,0.,1.));
#836=DIRECTION('ref_axis',(-1.,0.,0.));
#837=DIRECTION('',(-1.,6.25492842658491E-17,0.));
#838=DIRECTION('',(0.,-1.,0.));
#839=DIRECTION('center_axis',(0.,0.,1.));
#840=DIRECTION('ref_axis',(-1.,0.,0.));
#841=DIRECTION('center_axis',(0.,0.,1.));
#842=DIRECTION('ref_axis',(-1.,0.,0.));
#843=DIRECTION('center_axis',(0.,0.,1.));
#844=DIRECTION('ref_axis',(-1.,0.,0.));
#845=DIRECTION('center_axis',(0.,0.,1.));
#846=DIRECTION('ref_axis',(-1.,0.,0.));
#847=DIRECTION('center_axis',(1.,0.,0.));
#848=DIRECTION('ref_axis',(0.,0.,1.));
#849=DIRECTION('',(0.,-1.,0.));
#850=DIRECTION('',(0.,-1.,0.));
#851=DIRECTION('center_axis',(-1.,0.,0.));
#852=DIRECTION('ref_axis',(0.,0.,-1.));
#853=DIRECTION('',(0.,-1.,0.));
#854=DIRECTION('',(0.,-1.,0.));
#855=DIRECTION('center_axis',(0.,0.,1.));
#856=DIRECTION('ref_axis',(-1.,0.,0.));
#857=DIRECTION('center_axis',(0.,1.,0.));
#858=DIRECTION('ref_axis',(0.,0.,1.));
#859=DIRECTION('',(-1.,0.,0.));
#860=DIRECTION('',(1.,0.,0.));
#861=DIRECTION('center_axis',(0.,0.,-1.));
#862=DIRECTION('ref_axis',(0.,-1.,0.));
#863=DIRECTION('',(-1.,0.,0.));
#864=DIRECTION('',(0.,-1.,0.));
#865=DIRECTION('center_axis',(0.,0.,1.));
#866=DIRECTION('ref_axis',(0.,1.,0.));
#867=DIRECTION('',(0.,1.,0.));
#868=DIRECTION('',(-1.,0.,0.));
#869=DIRECTION('center_axis',(0.,-0.624695047554421,-0.780868809443033));
#870=DIRECTION('ref_axis',(0.,-0.780868809443033,0.624695047554421));
#871=DIRECTION('',(0.,-0.780868809443033,0.624695047554421));
#872=DIRECTION('center_axis',(0.,0.,1.));
#873=DIRECTION('ref_axis',(1.,0.,0.));
#874=DIRECTION('center_axis',(0.,0.,1.));
#875=DIRECTION('ref_axis',(1.,0.,0.));
#876=DIRECTION('center_axis',(0.,0.,1.));
#877=DIRECTION('ref_axis',(1.,0.,0.));
#878=DIRECTION('center_axis',(0.,0.,1.));
#879=DIRECTION('ref_axis',(1.,0.,0.));
#880=DIRECTION('center_axis',(0.,0.,1.));
#881=DIRECTION('ref_axis',(1.,0.,0.));
#882=DIRECTION('center_axis',(0.,0.,1.));
#883=DIRECTION('ref_axis',(1.,0.,0.));
#884=DIRECTION('center_axis',(0.,0.,1.));
#885=DIRECTION('ref_axis',(1.,0.,0.));
#886=DIRECTION('center_axis',(0.,0.,1.));
#887=DIRECTION('ref_axis',(1.,0.,0.));
#888=DIRECTION('center_axis',(0.,0.,1.));
#889=DIRECTION('ref_axis',(1.,0.,0.));
#890=DIRECTION('center_axis',(0.,0.,1.));
#891=DIRECTION('ref_axis',(1.,0.,0.));
#892=DIRECTION('center_axis',(0.,0.,1.));
#893=DIRECTION('ref_axis',(1.,0.,0.));
#894=DIRECTION('center_axis',(0.,0.,-1.));
#895=DIRECTION('ref_axis',(1.,0.,0.));
#896=DIRECTION('center_axis',(0.,0.,1.));
#897=DIRECTION('ref_axis',(1.,0.,0.));
#898=DIRECTION('',(0.,0.,-1.));
#899=DIRECTION('center_axis',(0.,0.,1.));
#900=DIRECTION('ref_axis',(1.,0.,0.));
#901=DIRECTION('',(0.,0.,-1.));
#902=DIRECTION('center_axis',(0.,0.,1.));
#903=DIRECTION('ref_axis',(1.,0.,0.));
#904=DIRECTION('center_axis',(0.,0.,1.));
#905=DIRECTION('ref_axis',(1.,0.,0.));
#906=DIRECTION('center_axis',(0.,0.,-1.));
#907=DIRECTION('ref_axis',(1.,0.,0.));
#908=DIRECTION('center_axis',(0.,0.,1.));
#909=DIRECTION('ref_axis',(1.,0.,0.));
#910=DIRECTION('',(0.,0.,-1.));
#911=DIRECTION('center_axis',(0.,0.,1.));
#912=DIRECTION('ref_axis',(1.,0.,0.));
#913=DIRECTION('',(0.,0.,-1.));
#914=DIRECTION('center_axis',(0.,0.,1.));
#915=DIRECTION('ref_axis',(1.,0.,0.));
#916=DIRECTION('center_axis',(0.,0.,1.));
#917=DIRECTION('ref_axis',(1.,0.,0.));
#918=DIRECTION('center_axis',(0.,0.,-1.));
#919=DIRECTION('ref_axis',(1.,0.,0.));
#920=DIRECTION('center_axis',(0.,0.,1.));
#921=DIRECTION('ref_axis',(1.,0.,0.));
#922=DIRECTION('',(0.,0.,-1.));
#923=DIRECTION('center_axis',(0.,0.,1.));
#924=DIRECTION('ref_axis',(1.,0.,0.));
#925=DIRECTION('',(0.,0.,-1.));
#926=DIRECTION('center_axis',(0.,0.,1.));
#927=DIRECTION('ref_axis',(1.,0.,0.));
#928=DIRECTION('center_axis',(0.,0.,1.));
#929=DIRECTION('ref_axis',(1.,0.,0.));
#930=DIRECTION('center_axis',(0.,0.,-1.));
#931=DIRECTION('ref_axis',(1.,0.,0.));
#932=DIRECTION('center_axis',(0.,0.,1.));
#933=DIRECTION('ref_axis',(1.,0.,0.));
#934=DIRECTION('',(0.,0.,-1.));
#935=DIRECTION('center_axis',(0.,0.,1.));
#936=DIRECTION('ref_axis',(1.,0.,0.));
#937=DIRECTION('',(0.,0.,-1.));
#938=DIRECTION('center_axis',(-1.,0.,0.));
#939=DIRECTION('ref_axis',(0.,-1.,0.));
#940=DIRECTION('',(0.,0.,1.));
#941=DIRECTION('center_axis',(0.,1.,0.));
#942=DIRECTION('ref_axis',(-1.,0.,0.));
#943=DIRECTION('center_axis',(0.,0.,-1.));
#944=DIRECTION('ref_axis',(-1.,0.,0.));
#945=DIRECTION('',(0.,-1.,0.));
#946=DIRECTION('',(-1.,0.,0.));
#947=DIRECTION('center_axis',(1.,0.,0.));
#948=DIRECTION('ref_axis',(0.,0.,-1.));
#949=DIRECTION('',(0.,0.,-1.));
#950=DIRECTION('',(0.,-1.,0.));
#951=DIRECTION('',(0.,0.78086880944303,-0.624695047554424));
#952=DIRECTION('center_axis',(0.,0.624695047554424,0.78086880944303));
#953=DIRECTION('ref_axis',(0.,-0.78086880944303,0.624695047554424));
#954=DIRECTION('',(1.,0.,0.));
#955=DIRECTION('center_axis',(0.,0.,-1.));
#956=DIRECTION('ref_axis',(-1.,0.,0.));
#957=DIRECTION('',(-0.707106781186545,0.70710678118655,0.));
#958=DIRECTION('',(-0.707106781186545,-0.70710678118655,0.));
#959=DIRECTION('',(-1.,0.,0.));
#960=DIRECTION('center_axis',(0.70710678118655,0.707106781186545,0.));
#961=DIRECTION('ref_axis',(0.707106781186545,-0.70710678118655,0.));
#962=DIRECTION('',(0.,0.,-1.));
#963=DIRECTION('center_axis',(0.,-1.,0.));
#964=DIRECTION('ref_axis',(0.,0.,-1.));
#965=DIRECTION('',(0.,0.,1.));
#966=DIRECTION('center_axis',(-0.70710678118655,0.707106781186545,0.));
#967=DIRECTION('ref_axis',(0.707106781186545,0.70710678118655,0.));
#968=CARTESIAN_POINT('',(0.,0.,0.));
#969=CARTESIAN_POINT('Origin',(-142.749144,67.02032,5.65));
#970=CARTESIAN_POINT('',(-104.500001557171,22.351068,5.65));
#971=CARTESIAN_POINT('',(-107.25,19.601068,5.65));
#972=CARTESIAN_POINT('',(-104.269973,22.5810950000001,5.65));
#973=CARTESIAN_POINT('',(-104.500001557171,111.689572,5.65));
#974=CARTESIAN_POINT('',(-104.5,89.229946,5.65));
#975=CARTESIAN_POINT('',(-107.25,114.439572,5.65));
#976=CARTESIAN_POINT('',(-102.894973,110.084545,5.65));
#977=CARTESIAN_POINT('',(-178.248288,114.439572,5.65));
#978=CARTESIAN_POINT('',(-160.373716,114.439572,5.65));
#979=CARTESIAN_POINT('',(-180.998288,111.689572,5.65));
#980=CARTESIAN_POINT('',(-181.228315,111.459545,5.65));
#981=CARTESIAN_POINT('',(-180.998288,22.351068,5.65));
#982=CARTESIAN_POINT('',(-180.998288,44.810694,5.65));
#983=CARTESIAN_POINT('',(-178.248288,19.601068,5.65));
#984=CARTESIAN_POINT('',(-182.603315,23.9560950000001,5.65));
#985=CARTESIAN_POINT('',(-125.124572,19.601068,5.65));
#986=CARTESIAN_POINT('',(-107.25,22.351068,5.65));
#987=CARTESIAN_POINT('',(-107.25,111.689572,5.65));
#988=CARTESIAN_POINT('',(-107.25,89.354946,5.65));
#989=CARTESIAN_POINT('',(-178.248288,22.351068,5.65));
#990=CARTESIAN_POINT('',(-124.999572,22.351068,5.65));
#991=CARTESIAN_POINT('',(-178.248288,111.689572,5.65));
#992=CARTESIAN_POINT('',(-178.248288,44.685694,5.65));
#993=CARTESIAN_POINT('',(-160.498716,111.689572,5.65));
#994=CARTESIAN_POINT('Origin',(-178.248288,111.689572,0.));
#995=CARTESIAN_POINT('',(-178.248288,111.689572,-0.5));
#996=CARTESIAN_POINT('',(-178.248288,111.689572,5.));
#997=CARTESIAN_POINT('',(-107.25,111.689572,-0.5));
#998=CARTESIAN_POINT('',(-148.000002205372,111.689572,-0.5));
#999=CARTESIAN_POINT('',(-107.25,111.689572,0.));
#1000=CARTESIAN_POINT('',(-148.000002205372,111.689572,0.));
#1001=CARTESIAN_POINT('',(-138.00000205636,111.689572,0.));
#1002=CARTESIAN_POINT('',(-160.498716,111.689572,0.));
#1003=CARTESIAN_POINT('',(-148.000002205372,111.689572,4.00000005960464));
#1004=CARTESIAN_POINT('',(-148.000002205372,111.689572,2.00000002980232));
#1005=CARTESIAN_POINT('',(-138.00000205636,111.689572,4.00000005960464));
#1006=CARTESIAN_POINT('',(-158.12414502818,111.689572,4.00000005960464));
#1007=CARTESIAN_POINT('',(-138.00000205636,111.689572,0.));
#1008=CARTESIAN_POINT('Origin',(-178.248288,22.351068,0.));
#1009=CARTESIAN_POINT('',(-178.248288,22.351068,-0.5));
#1010=CARTESIAN_POINT('',(-178.248288,22.351068,5.));
#1011=CARTESIAN_POINT('',(-178.248288,111.689572,-0.5));
#1012=CARTESIAN_POINT('Origin',(-180.998288,22.601068,0.));
#1013=CARTESIAN_POINT('',(-180.998288,111.689572,-4.00000005960464));
#1014=CARTESIAN_POINT('',(-180.998288,111.689572,5.));
#1015=CARTESIAN_POINT('',(-180.998288,94.2419151780746,-4.));
#1016=CARTESIAN_POINT('',(-180.998288,58.4214915890373,-4.));
#1017=CARTESIAN_POINT('',(-180.998288,102.991915382966,-11.0000001639128));
#1018=CARTESIAN_POINT('',(-180.998288,75.7995838237899,10.7538650834276));
#1019=CARTESIAN_POINT('',(-180.998288,111.689572,-10.9999998956919));
#1020=CARTESIAN_POINT('',(-180.998288,67.02032,-11.0000001639128));
#1021=CARTESIAN_POINT('',(-180.998288,111.689572,-14.));
#1022=CARTESIAN_POINT('',(-180.998288,111.689572,3.3));
#1023=CARTESIAN_POINT('',(-180.998288,101.939572,-14.));
#1024=CARTESIAN_POINT('',(-180.998288,114.439572,-14.));
#1025=CARTESIAN_POINT('',(-180.998288,89.439572,-4.));
#1026=CARTESIAN_POINT('',(-180.998288,74.3363695609756,8.08256195121951));
#1027=CARTESIAN_POINT('',(-180.998288,22.351068,-4.));
#1028=CARTESIAN_POINT('',(-180.998288,111.439572,-4.));
#1029=CARTESIAN_POINT('',(-180.998288,22.351068,5.));
#1030=CARTESIAN_POINT('Origin',(-178.248288,114.439572,6.6));
#1031=CARTESIAN_POINT('',(-178.248288,114.439572,-14.));
#1032=CARTESIAN_POINT('',(-178.248288,114.439572,5.));
#1033=CARTESIAN_POINT('',(-172.498502,120.189358,-14.));
#1034=CARTESIAN_POINT('',(-180.998288,111.689572,3.3));
#1035=CARTESIAN_POINT('Origin',(-177.998288,114.439572,0.));
#1036=CARTESIAN_POINT('',(-107.25,114.439572,-14.));
#1037=CARTESIAN_POINT('',(-107.25,114.439572,5.));
#1038=CARTESIAN_POINT('',(-104.5,114.439572,-14.));
#1039=CARTESIAN_POINT('',(-148.000002205372,114.439572,0.));
#1040=CARTESIAN_POINT('',(-138.00000205636,114.439572,0.));
#1041=CARTESIAN_POINT('',(-162.999145102686,114.439572,0.));
#1042=CARTESIAN_POINT('',(-138.00000205636,114.439572,4.00000005960464));
#1043=CARTESIAN_POINT('',(-138.00000205636,114.439572,0.));
#1044=CARTESIAN_POINT('',(-148.000002205372,114.439572,4.00000005960464));
#1045=CARTESIAN_POINT('',(-157.99914502818,114.439572,4.00000005960464));
#1046=CARTESIAN_POINT('',(-148.000002205372,114.439572,2.00000002980232));
#1047=CARTESIAN_POINT('Origin',(-104.5,111.689572,6.6));
#1048=CARTESIAN_POINT('',(-104.5,111.689572,-4.00000005960464));
#1049=CARTESIAN_POINT('',(-104.500001557171,111.689572,5.));
#1050=CARTESIAN_POINT('',(-104.5,111.689572,-10.9999998956919));
#1051=CARTESIAN_POINT('',(-104.5,111.689572,3.3));
#1052=CARTESIAN_POINT('',(-104.5,111.689572,-14.));
#1053=CARTESIAN_POINT('',(-104.5,111.689572,3.3));
#1054=CARTESIAN_POINT('',(-111.624786,118.814358,-14.));
#1055=CARTESIAN_POINT('Origin',(-142.749144,68.39532,-0.5));
#1056=CARTESIAN_POINT('',(-107.25,22.351068,-0.5));
#1057=CARTESIAN_POINT('',(-178.248288,22.351068,-0.5));
#1058=CARTESIAN_POINT('',(-107.25,22.351068,-0.5));
#1059=CARTESIAN_POINT('',(-177.331104,107.453816,-0.5));
#1060=CARTESIAN_POINT('Origin',(-173.831104,107.453816,-0.5));
#1061=CARTESIAN_POINT('',(-115.121,107.453816,-0.5));
#1062=CARTESIAN_POINT('Origin',(-111.621,107.453816,-0.5));
#1063=CARTESIAN_POINT('',(-177.331104,26.78904,-0.5));
#1064=CARTESIAN_POINT('Origin',(-173.831104,26.78904,-0.5));
#1065=CARTESIAN_POINT('',(-115.121,26.78904,-0.5));
#1066=CARTESIAN_POINT('Origin',(-111.621,26.78904,-0.5));
#1067=CARTESIAN_POINT('Origin',(-138.00000205636,114.439572,0.));
#1068=CARTESIAN_POINT('',(-138.00000205636,114.439572,4.00000005960464));
#1069=CARTESIAN_POINT('',(-138.00000205636,114.439572,0.));
#1070=CARTESIAN_POINT('Origin',(-148.000002205372,114.439572,4.00000005960464));
#1071=CARTESIAN_POINT('',(-148.000002205372,114.439572,0.));
#1072=CARTESIAN_POINT('',(-148.000002205372,114.439572,4.00000005960464));
#1073=CARTESIAN_POINT('Origin',(-138.00000205636,114.439572,4.00000005960464));
#1074=CARTESIAN_POINT('Origin',(-104.5,111.689572,-4.00000005960464));
#1075=CARTESIAN_POINT('',(-104.5,111.689572,-10.9999998956919));
#1076=CARTESIAN_POINT('',(-104.5,111.689572,-4.00000005960464));
#1077=CARTESIAN_POINT('Origin',(-104.5,111.439572,-11.0000001639128));
#1078=CARTESIAN_POINT('',(-104.5,102.991915382966,-11.0000001639128));
#1079=CARTESIAN_POINT('',(-104.5,102.991915382966,-11.0000001639128));
#1080=CARTESIAN_POINT('',(-104.5,111.439572,-11.0000001639128));
#1081=CARTESIAN_POINT('Origin',(-104.5,94.2419151780746,-4.));
#1082=CARTESIAN_POINT('',(-104.5,94.2419151780746,-4.));
#1083=CARTESIAN_POINT('',(-104.5,102.840743589037,-4.));
#1084=CARTESIAN_POINT('',(-104.5,94.2419151780746,-4.));
#1085=CARTESIAN_POINT('Origin',(-104.5,102.991915382966,-11.0000001639128));
#1086=CARTESIAN_POINT('',(-104.5,102.884493579888,-10.9140627214504));
#1087=CARTESIAN_POINT('Origin',(-142.749144,67.02032,0.));
#1088=CARTESIAN_POINT('Origin',(-142.749144,67.02032,0.));
#1089=CARTESIAN_POINT('',(-113.121,26.78904,0.));
#1090=CARTESIAN_POINT('Origin',(-111.621,26.78904,0.));
#1091=CARTESIAN_POINT('Origin',(-142.749144,67.02032,0.));
#1092=CARTESIAN_POINT('',(-175.331104,26.78904,0.));
#1093=CARTESIAN_POINT('Origin',(-173.831104,26.78904,0.));
#1094=CARTESIAN_POINT('Origin',(-142.749144,67.02032,0.));
#1095=CARTESIAN_POINT('',(-113.121,107.453816,0.));
#1096=CARTESIAN_POINT('Origin',(-111.621,107.453816,0.));
#1097=CARTESIAN_POINT('Origin',(-142.749144,67.02032,0.));
#1098=CARTESIAN_POINT('',(-175.331104,107.453816,0.));
#1099=CARTESIAN_POINT('Origin',(-173.831104,107.453816,0.));
#1100=CARTESIAN_POINT('Origin',(-142.726052,67.121428,5.));
#1101=CARTESIAN_POINT('',(-177.331104,107.453816,5.));
#1102=CARTESIAN_POINT('Origin',(-173.831104,107.453816,5.));
#1103=CARTESIAN_POINT('',(-175.331104,107.453816,5.));
#1104=CARTESIAN_POINT('Origin',(-173.831104,107.453816,5.));
#1105=CARTESIAN_POINT('Origin',(-173.831104,107.453816,0.));
#1106=CARTESIAN_POINT('',(-177.331104,107.453816,0.));
#1107=CARTESIAN_POINT('Origin',(-173.831104,107.453816,0.));
#1108=CARTESIAN_POINT('',(-175.331104,107.453816,0.));
#1109=CARTESIAN_POINT('Origin',(-142.726052,67.121428,5.));
#1110=CARTESIAN_POINT('',(-115.121,107.453816,5.));
#1111=CARTESIAN_POINT('Origin',(-111.621,107.453816,5.));
#1112=CARTESIAN_POINT('',(-113.121,107.453816,5.));
#1113=CARTESIAN_POINT('Origin',(-111.621,107.453816,5.));
#1114=CARTESIAN_POINT('Origin',(-111.621,107.453816,0.));
#1115=CARTESIAN_POINT('',(-115.121,107.453816,0.));
#1116=CARTESIAN_POINT('Origin',(-111.621,107.453816,0.));
#1117=CARTESIAN_POINT('',(-113.121,107.453816,0.));
#1118=CARTESIAN_POINT('Origin',(-142.726052,67.121428,5.));
#1119=CARTESIAN_POINT('',(-177.331104,26.78904,5.));
#1120=CARTESIAN_POINT('Origin',(-173.831104,26.78904,5.));
#1121=CARTESIAN_POINT('',(-175.331104,26.78904,5.));
#1122=CARTESIAN_POINT('Origin',(-173.831104,26.78904,5.));
#1123=CARTESIAN_POINT('Origin',(-173.831104,26.78904,0.));
#1124=CARTESIAN_POINT('',(-177.331104,26.78904,0.));
#1125=CARTESIAN_POINT('Origin',(-173.831104,26.78904,0.));
#1126=CARTESIAN_POINT('',(-175.331104,26.78904,0.));
#1127=CARTESIAN_POINT('Origin',(-142.726052,67.121428,5.));
#1128=CARTESIAN_POINT('',(-115.121,26.78904,5.));
#1129=CARTESIAN_POINT('Origin',(-111.621,26.78904,5.));
#1130=CARTESIAN_POINT('',(-113.121,26.78904,5.));
#1131=CARTESIAN_POINT('Origin',(-111.621,26.78904,5.));
#1132=CARTESIAN_POINT('Origin',(-111.621,26.78904,0.));
#1133=CARTESIAN_POINT('',(-115.121,26.78904,0.));
#1134=CARTESIAN_POINT('Origin',(-111.621,26.78904,0.));
#1135=CARTESIAN_POINT('',(-113.121,26.78904,0.));
#1136=CARTESIAN_POINT('Origin',(-107.25,111.689572,0.));
#1137=CARTESIAN_POINT('',(-107.25,22.351068,5.));
#1138=CARTESIAN_POINT('Origin',(-107.25,22.351068,0.));
#1139=CARTESIAN_POINT('Origin',(-142.749144,101.939572,-14.));
#1140=CARTESIAN_POINT('',(-104.5,101.939572,-14.));
#1141=CARTESIAN_POINT('',(-104.5,114.439572,-14.));
#1142=CARTESIAN_POINT('',(-161.873716,101.939572,-14.));
#1143=CARTESIAN_POINT('Origin',(-104.5,111.439572,0.));
#1144=CARTESIAN_POINT('',(-104.5,22.351068,-4.));
#1145=CARTESIAN_POINT('',(-104.5,22.351068,3.3));
#1146=CARTESIAN_POINT('',(-104.5,89.439572,-4.));
#1147=CARTESIAN_POINT('',(-104.5,22.601068,-4.));
#1148=CARTESIAN_POINT('',(-104.5,101.421279317073,-13.5853658536585));
#1149=CARTESIAN_POINT('Origin',(-180.998288,101.939572,-14.));
#1150=CARTESIAN_POINT('',(-123.624572,89.439572,-4.));
#1151=CARTESIAN_POINT('Origin',(-142.749144,67.02032,-4.));
#1152=CARTESIAN_POINT('',(-178.248288,19.601068,-4.));
#1153=CARTESIAN_POINT('',(-182.603315,23.9560950000001,-4.));
#1154=CARTESIAN_POINT('',(-107.25,19.601068,-4.));
#1155=CARTESIAN_POINT('',(-104.269973,22.5810950000001,-4.));
#1156=CARTESIAN_POINT('',(-177.998288,19.601068,-4.));
#1157=CARTESIAN_POINT('Origin',(-180.998288,22.351068,6.6));
#1158=CARTESIAN_POINT('',(-178.248288,19.601068,3.3));
#1159=CARTESIAN_POINT('Origin',(-107.5,19.601068,0.));
#1160=CARTESIAN_POINT('',(-107.25,19.601068,5.));
#1161=CARTESIAN_POINT('Origin',(-107.25,19.601068,6.6));
#1162=UNCERTAINTY_MEASURE_WITH_UNIT(LENGTH_MEASURE(0.01),#1166,
'DISTANCE_ACCURACY_VALUE',
'Maximum model space distance between geometric entities at asserted c
onnectivities');
#1163=UNCERTAINTY_MEASURE_WITH_UNIT(LENGTH_MEASURE(0.01),#1166,
'DISTANCE_ACCURACY_VALUE',
'Maximum model space distance between geometric entities at asserted c
onnectivities');
#1164=(
GEOMETRIC_REPRESENTATION_CONTEXT(3)
GLOBAL_UNCERTAINTY_ASSIGNED_CONTEXT((#1162))
GLOBAL_UNIT_ASSIGNED_CONTEXT((#1166,#1168,#1169))
REPRESENTATION_CONTEXT('','3D')
);
#1165=(
GEOMETRIC_REPRESENTATION_CONTEXT(3)
GLOBAL_UNCERTAINTY_ASSIGNED_CONTEXT((#1163))
GLOBAL_UNIT_ASSIGNED_CONTEXT((#1166,#1168,#1169))
REPRESENTATION_CONTEXT('','3D')
);
#1166=(
LENGTH_UNIT()
NAMED_UNIT(*)
SI_UNIT(.MILLI.,.METRE.)
);
#1167=(
LENGTH_UNIT()
NAMED_UNIT(*)
SI_UNIT($,.METRE.)
);
#1168=(
NAMED_UNIT(*)
PLANE_ANGLE_UNIT()
SI_UNIT($,.RADIAN.)
);
#1169=(
NAMED_UNIT(*)
SI_UNIT($,.STERADIAN.)
SOLID_ANGLE_UNIT()
);
#1170=SHAPE_DEFINITION_REPRESENTATION(#1171,#1172);
#1171=PRODUCT_DEFINITION_SHAPE('',$,#1174);
#1172=SHAPE_REPRESENTATION('',(#718),#1164);
#1173=PRODUCT_DEFINITION_CONTEXT('part definition',#1178,'design');
#1174=PRODUCT_DEFINITION('2026-07-25-10-46-28-993','Case',#1175,#1173);
#1175=PRODUCT_DEFINITION_FORMATION('',$,#1180);
#1176=PRODUCT_RELATED_PRODUCT_CATEGORY('Case','Case',(#1180));
#1177=APPLICATION_PROTOCOL_DEFINITION('international standard',
'automotive_design',2009,#1178);
#1178=APPLICATION_CONTEXT(
'Core Data for Automotive Mechanical Design Process');
#1179=PRODUCT_CONTEXT('part definition',#1178,'mechanical');
#1180=PRODUCT('2026-07-25-10-46-28-993','Case',$,(#1179));
#1181=PRESENTATION_STYLE_ASSIGNMENT((#1182));
#1182=SURFACE_STYLE_USAGE(.BOTH.,#1183);
#1183=SURFACE_SIDE_STYLE('',(#1184));
#1184=SURFACE_STYLE_FILL_AREA(#1185);
#1185=FILL_AREA_STYLE('Steel - Satin',(#1186));
#1186=FILL_AREA_STYLE_COLOUR('Steel - Satin',#1187);
#1187=COLOUR_RGB('Steel - Satin',0.627450980392157,0.627450980392157,0.627450980392157);
ENDSEC;
END-ISO-10303-21;
